GRF
version=1
nRows=21
nColumns=19
inDegrees=no
endheader
time	plate1_ground_force_vx	plate1_ground_force_vy	plate1_ground_force_vz	plate1_ground_force_px	plate1_ground_force_py	plate1_ground_force_pz	plate1_ground_torque_x	plate1_ground_torque_y	plate1_ground_torque_z	plate2_ground_force_vx	plate2_ground_force_vy	plate2_ground_force_vz	plate2_ground_force_px	plate2_ground_force_py	plate2_ground_force_pz	plate2_ground_torque_x	plate2_ground_torque_y	plate2_ground_torque_z
      1.74000000	     61.31907780	    412.17599283	      7.28038051	      1.02190300	      0.00000000	      0.17709703	      0.00000000	      3.11751144	      0.00000000	    -63.36012428	    452.27102327	     -4.89925926	      1.44011459	      0.00000000	      0.21184124	      0.00000000	     -3.62167674	      0.00000000
      1.75000000	     61.27249696	    412.08902894	      7.23119380	      1.02196346	      0.00000000	      0.17710642	      0.00000000	      3.11796472	      0.00000000	    -63.40053048	    452.52387052	     -4.90137471	      1.44015003	      0.00000000	      0.21182272	      0.00000000	     -3.61963636	      0.00000000
      1.76000000	     61.23577844	    412.00747969	      7.17936673	      1.02198330	      0.00000000	      0.17714051	      0.00000000	      3.11619213	      0.00000000	    -63.46014719	    452.82949703	     -4.92181760	      1.44021474	      0.00000000	      0.21182932	      0.00000000	     -3.61730983	      0.00000000
      1.77000000	     61.21000531	    411.93089114	      7.12552966	      1.02197053	      0.00000000	      0.17719584	      0.00000000	      3.11259566	      0.00000000	    -63.53723950	    453.18156464	     -4.96924564	      1.44031523	      0.00000000	      0.21186882	      0.00000000	     -3.61482948	      0.00000000
      1.78000000	     61.19445084	    411.86242028	      7.07086276	      1.02193450	      0.00000000	      0.17726448	      0.00000000	      3.10764276	      0.00000000	    -63.62799791	    453.55395458	     -5.04535497	      1.44044613	      0.00000000	      0.21194527	      0.00000000	     -3.61189185	      0.00000000
      1.79000000	     61.18625402	    411.80461818	      7.01756804	      1.02188222	      0.00000000	      0.17733523	      0.00000000	      3.10178346	      0.00000000	    -63.72678726	    453.90460020	     -5.14363373	      1.44058965	      0.00000000	      0.21205727	      0.00000000	     -3.60786988	      0.00000000
      1.80000000	     61.18050332	    411.75527809	      6.96859167	      1.02181860	      0.00000000	      0.17739598	      0.00000000	      3.09549442	      0.00000000	    -63.82649235	    454.18751256	     -5.25122861	      1.44072067	      0.00000000	      0.21219717	      0.00000000	     -3.60216675	      0.00000000
      1.81000000	     61.17119878	    411.70650593	      6.92681780	      1.02174932	      0.00000000	      0.17743646	      0.00000000	      3.08938286	      0.00000000	    -63.91905503	    454.36791296	     -5.35307246	      1.44081506	      0.00000000	      0.21235182	      0.00000000	     -3.59460307	      0.00000000
      1.82000000	     61.15297791	    411.64781093	      6.89424491	      1.02168304	      0.00000000	      0.17745057	      0.00000000	      3.08422643	      0.00000000	    -63.99650245	    454.43348919	     -5.43649171	      1.44085729	      0.00000000	      0.21250516	      0.00000000	     -3.58561024	      0.00000000
      1.83000000	     61.12288652	    411.57141646	      6.87150107	      1.02163035	      0.00000000	      0.17743773	      0.00000000	      3.08085513	      0.00000000	    -64.05262582	    454.39700243	     -5.49454896	      1.44084437	      0.00000000	      0.21264199	      0.00000000	     -3.57612861	      0.00000000
      1.84000000	     61.08137969	    411.47704706	      6.85771492	      1.02159997	      0.00000000	      0.17740292	      0.00000000	      3.07989174	      0.00000000	    -64.08492571	    454.29014661	     -5.52721434	      1.44078567	      0.00000000	      0.21275161	      0.00000000	     -3.56729584	      0.00000000
      1.85000000	     61.03217481	    411.37423545	      6.85063741	      1.02159456	      0.00000000	      0.17735521	     -0.00000000	      3.08149153	      0.00000000	    -64.09585696	    454.15226432	     -5.54045507	      1.44069947	      0.00000000	      0.21282998	      0.00000000	     -3.56012555	      0.00000000
      1.86000000	     60.98113285	    411.28137019	      6.84705109	      1.02160908	      0.00000000	      0.17730503	     -0.00000000	      3.08525712	      0.00000000	    -64.09235592	    454.01817336	     -5.54393745	      1.44060794	      0.00000000	      0.21287978	      0.00000000	     -3.55533420	      0.00000000
      1.87000000	     60.93463487	    411.22142938	      6.84357072	      1.02163261	      0.00000000	      0.17726116	     -0.00000000	      3.09039918	      0.00000000	    -64.08337923	    453.90804389	     -5.54816217	      1.44053174	      0.00000000	      0.21290856	      0.00000000	     -3.55331839	      0.00000000
      1.88000000	     60.89794599	    411.21509578	      6.83769064	      1.02165263	      0.00000000	      0.17722871	     -0.00000000	      3.09604026	      0.00000000	    -64.07634328	    453.82151615	     -5.56175379	      1.44048529	      0.00000000	      0.21292601	      0.00000000	     -3.55416348	      0.00000000
      1.89000000	     60.87403111	    411.27328021	      6.82858227	      1.02165925	      0.00000000	      0.17720923	     -0.00000000	      3.10146352	      0.00000000	    -64.07413715	    453.73859281	     -5.58950265	      1.44047357	      0.00000000	      0.21294137	      0.00000000	     -3.55759237	      0.00000000
      1.90000000	     60.86324573	    411.39224629	      6.81713032	      1.02164756	      0.00000000	      0.17720251	     -0.00000000	      3.10617560	      0.00000000	    -64.07422002	    453.62897468	     -5.63158505	      1.44049153	      0.00000000	      0.21296149	      0.00000000	     -3.56290299	      0.00000000
      1.91000000	     60.86407509	    411.55402695	      6.80515270	      1.02161755	      0.00000000	      0.17720835	     -0.00000000	      3.10981413	      0.00000000	    -64.07028032	    453.46753482	     -5.68406474	      1.44052665	      0.00000000	      0.21298965	      0.00000000	     -3.56903533	      0.00000000
      1.92000000	     60.87455883	    411.73228221	      6.79431898	      1.02157285	      0.00000000	      0.17722686	     -0.00000000	      3.11203104	      0.00000000	    -64.05564421	    453.24860306	     -5.74037508	      1.44056406	      0.00000000	      0.21302530	      0.00000000	     -3.57484370	      0.00000000
      1.93000000	     60.89354129	    411.90080992	      6.78547049	      1.02151952	      0.00000000	      0.17725699	     -0.00000000	      3.11245055	      0.00000000	    -64.02678284	    452.99061888	     -5.79322124	      1.44059238	      0.00000000	      0.21306472	      0.00000000	     -3.57947969	      0.00000000
      1.94000000	     60.92091581	    412.04087054	      6.77869657	      1.02146510	      0.00000000	      0.17729515	     -0.00000000	      3.11070418	      0.00000000	    -63.98528721	    452.72800728	     -5.83635331	      1.44060734	      0.00000000	      0.21310261	      0.00000000	     -3.58267035	      0.00000000
